Coordinates
version=1
nRows=26
nColumns=22
inDegrees=yes

Units are S.I. units (second, meters, Newtons, ...)
If the header above contains a line with 'inDegrees', this indicates whether rotational values are in degrees (yes) or radians (no).

endheader
time	pelvis_tilt	pelvis_list	pelvis_rotation	pelvis_tx	pelvis_ty	pelvis_tz	hip_flexion_r	hip_adduction_r	hip_rotation_r	knee_angle_r	ankle_angle_r	subtalar_angle_r	hip_flexion_l	hip_adduction_l	hip_rotation_l	knee_angle_l	ankle_angle_l	subtalar_angle_l	lumbar_extension	lumbar_bending	lumbar_rotation
      0.01000000	     -1.45804385	     -4.33112759	    -10.41072384	      0.19042653	      1.01884936	      0.66322909	      4.82505538	      5.73691738	      0.15431209	    -11.75386559	      7.91753121	     -0.97282813	      3.22182872	     -1.71905391	     -5.24437233	    -10.16396686	     10.71956254	     -5.53062498	    -10.05733335	      4.62172752	      1.51061001
      0.02000000	     -1.45875754	     -4.33079583	    -10.41106776	      0.19044581	      1.01884711	      0.66323759	      4.82477207	      5.73693524	      0.15426522	    -11.75402207	      7.91749700	     -0.97282872	      3.22163143	     -1.71908140	     -5.24434182	    -10.16409925	     10.71958560	     -5.53069565	    -10.05770795	      4.62179711	      1.51045069
      0.03000000	     -1.45926508	     -4.33049087	    -10.41963523	      0.19046896	      1.01884587	      0.66325922	      4.82435584	      5.73713614	      0.15373721	    -11.75424129	      7.91730083	     -0.97291620	      3.21979921	     -1.71910890	     -5.24390906	    -10.16538390	     10.72031430	     -5.53168138	    -10.05881079	      4.62225399	      1.50629116
      0.04000000	     -1.46040858	     -4.33005623	    -10.42078858	      0.19049800	      1.01884227	      0.66327301	      4.82392990	      5.73732380	      0.15390295	    -11.75468539	      7.91726775	     -0.97295501	      3.21928284	     -1.71923140	     -5.24405704	    -10.16552450	     10.72058417	     -5.53192956	    -10.05952228	      4.62243309	      1.50532900
      0.05000000	     -1.46135240	     -4.33006671	    -10.43094791	      0.19052600	      1.01884040	      0.66330131	      4.82393826	      5.73822945	      0.15477927	    -11.75544049	      7.91747997	     -0.97325815	      3.21715103	     -1.71990689	     -5.24450359	    -10.16635276	     10.72234461	     -5.53319823	    -10.06152823	      4.62308142	      1.49835122
      0.06000000	     -1.45993405	     -4.33169810	    -10.43630100	      0.19055774	      1.01883884	      0.66332684	      4.82327483	      5.74118670	      0.16825706	    -11.76288025	      7.91922894	     -0.97533424	      3.21116140	     -1.72229992	     -5.25463945	    -10.16317177	     10.73225044	     -5.53990792	    -10.06688220	      4.62582095	      1.48041081
      0.07000000	     -1.46167806	     -4.33130613	    -10.44261826	      0.19059125	      1.01883538	      0.66335214	      4.82251257	      5.74181354	      0.16856642	    -11.76128748	      7.92007594	     -0.97576389	      3.21079502	     -1.72286375	     -5.25431781	    -10.16486337	     10.73342903	     -5.54105899	    -10.06971628	      4.62528455	      1.47860714
      0.08000000	     -1.45751158	     -4.33198245	    -10.44966272	      0.19062019	      1.01883578	      0.66338474	      4.81524607	      5.74395085	      0.19061598	    -11.76140413	      7.92773559	     -0.98132727	      3.20701204	     -1.72440262	     -5.26324366	    -10.17247539	     10.74861383	     -5.55363924	    -10.08127580	      4.62422755	      1.46914537
      0.09000000	     -1.45964248	     -4.33174495	    -10.45586573	      0.19066099	      1.01883044	      0.66341357	      4.81435157	      5.74476709	      0.19031013	    -11.75989321	      7.92833296	     -0.98183101	      3.20653317	     -1.72508230	     -5.26235209	    -10.17423335	     10.74919229	     -5.55468274	    -10.08419089	      4.62252576	      1.46796324
      0.10000000	     -1.45494634	     -4.33014658	    -10.46192659	      0.19069149	      1.01883293	      0.66344543	      4.80717690	      5.74406096	      0.20858096	    -11.76089527	      7.93354072	     -0.98663508	      3.20553145	     -1.72361595	     -5.26148514	    -10.18773147	     10.75847465	     -5.56389045	    -10.09755114	      4.61636819	      1.46237616
      0.11000000	     -1.45114485	     -4.32842567	    -10.46799645	      0.19072752	      1.01883235	      0.66347572	      4.79901462	      5.74290161	      0.22235574	    -11.75741678	      7.93963453	     -0.99207624	      3.20376229	     -1.72217967	     -5.26147269	    -10.19818887	     10.76716890	     -5.57427470	    -10.11126298	      4.60992934	      1.45908709
      0.12000000	     -1.45323934	     -4.32833642	    -10.47618610	      0.19077689	      1.01882465	      0.66351004	      4.79758506	      5.74414777	      0.22320692	    -11.75607042	      7.94058409	     -0.99269650	      3.20399113	     -1.72283011	     -5.25875827	    -10.20252242	     10.76803803	     -5.57558686	    -10.11658857	      4.60583063	      1.45628451
      0.13000000	     -1.44443530	     -4.32466792	    -10.47794978	      0.19080015	      1.01882735	      0.66353239	      4.78732270	      5.74017698	      0.24848185	    -11.75846068	      7.94705395	     -0.99687559	      3.20934980	     -1.71776418	     -5.24643110	    -10.23417383	     10.77766408	     -5.58472041	    -10.13966456	      4.59389062	      1.45065343
      0.14000000	     -1.44570636	     -4.32469662	    -10.48878474	      0.19086043	      1.01882012	      0.66357081	      4.78407648	      5.74128226	      0.25099176	    -11.75634794	      7.94929792	     -0.99780571	      3.21027935	     -1.71808440	     -5.24163768	    -10.24324379	     10.77986552	     -5.58697492	    -10.14685531	      4.58748629	      1.44674107
      0.15000000	     -1.43121747	     -4.31989549	    -10.48537766	      0.19088157	      1.01882477	      0.66357566	      4.76724017	      5.73470687	      0.28624999	    -11.75800857	      7.96154554	     -1.00348372	      3.22119557	     -1.71020093	     -5.22227900	    -10.29426184	     10.79546202	     -5.60079456	    -10.17993588	      4.57176434	      1.44291045
      0.16000000	     -1.41964508	     -4.31823618	    -10.48804546	      0.19093044	      1.01882714	      0.66359297	      4.75099437	      5.73192283	      0.31056111	    -11.75717224	      7.97454274	     -1.00964017	      3.22686643	     -1.70561766	     -5.20806514	    -10.33499415	     10.81084151	     -5.61632390	    -10.20670014	      4.55893679	      1.43865718
      0.17000000	     -1.40703574	     -4.31784975	    -10.49000765	      0.19098394	      1.01882965	      0.66360157	      4.73485423	      5.72963543	      0.33407833	    -11.75966528	      7.98703197	     -1.01600137	      3.23375152	     -1.70153045	     -5.19072113	    -10.37977302	     10.82480415	     -5.63305896	    -10.23553620	      4.54692137	      1.43805408
      0.18000000	     -1.39302587	     -4.31812350	    -10.49106631	      0.19104565	      1.01883260	      0.66360347	      4.71827918	      5.72747222	      0.35819781	    -11.76519046	      8.00047217	     -1.02253541	      3.24187043	     -1.69720648	     -5.17052103	    -10.43041831	     10.83923728	     -5.65112534	    -10.26587032	      4.53469061	      1.43938508
      0.19000000	     -1.37669769	     -4.31901224	    -10.48917432	      0.19111549	      1.01883490	      0.66359417	      4.70074467	      5.72472009	      0.38352157	    -11.77515703	      8.01626735	     -1.02959686	      3.25128353	     -1.69266389	     -5.14778597	    -10.48778703	     10.85582419	     -5.67188735	    -10.29851992	      4.52262825	      1.44327569
      0.20000000	     -1.35979642	     -4.32074873	    -10.48622151	      0.19119786	      1.01883735	      0.66357420	      4.68463106	      5.72270649	      0.40697192	    -11.78997315	      8.03289107	     -1.03617523	      3.26108651	     -1.68751361	     -5.12325108	    -10.54852805	     10.87260990	     -5.69308035	    -10.33118937	      4.51052020	      1.44990875
      0.21000000	     -1.34071403	     -4.32284605	    -10.47932667	      0.19128732	      1.01884026	      0.66353778	      4.66897300	      5.71965015	      0.42994685	    -11.81151184	      8.05242113	     -1.04269884	      3.27243700	     -1.68197013	     -5.09654367	    -10.61531229	     10.89213762	     -5.71711805	    -10.36646062	      4.49862771	      1.45966507
      0.22000000	     -1.32117858	     -4.32550676	    -10.47095648	      0.19138890	      1.01884238	      0.66348954	      4.65558123	      5.71651230	      0.44965531	    -11.83939116	      8.07289829	     -1.04810784	      3.28428091	     -1.67608446	     -5.06811054	    -10.68516331	     10.91221141	     -5.74164892	    -10.40184845	      4.48621464	      1.47215828
      0.23000000	     -1.30013917	     -4.32837061	    -10.45916668	      0.19149724	      1.01884319	      0.66342275	      4.64421842	      5.71224342	      0.46570939	    -11.87486773	      8.09706855	     -1.05257271	      3.29755229	     -1.66937781	     -5.03815725	    -10.76015988	     10.93608404	     -5.76991347	    -10.43958680	      4.47388670	      1.48677534
      0.24000000	     -1.27543255	     -4.33304580	    -10.43912953	      0.19163254	      1.01883575	      0.66333406	      4.63268083	      5.70709490	      0.45526663	    -11.92108039	      8.15674067	     -1.05759182	      3.30943978	     -1.66353187	     -5.01691888	    -10.84117392	     10.99521456	     -5.85116982	    -10.47801670	      4.46356737	      1.48704221
      0.25000000	     -1.25852620	     -4.33609306	    -10.42693894	      0.19175733	      1.01883587	      0.66324027	      4.62960193	      5.70296225	      0.47099053	    -11.96345926	      8.16117027	     -1.05639388	      3.32512100	     -1.65506764	     -4.97620277	    -10.91420395	     10.99723880	     -5.86977188	    -10.51085692	      4.45081345	      1.51341207
      0.26000000	     -1.23914968	     -4.33897405	    -10.41060763	      0.19188091	      1.01883559	      0.66312929	      4.62796301	      5.69708920	      0.48068102	    -12.01486525	      8.17648237	     -1.05416862	      3.34366972	     -1.64650002	     -4.93891009	    -10.99495246	     11.01353975	     -5.89002701	    -10.54859949	      4.43554345	      1.53594755
